<mxfile host="app.diagrams.net" modified="2023-04-12T23:27:35.594Z" agent="Mozilla/5.0 (Windows NT 10.0; Win64; x64) AppleWebKit/537.36 (KHTML, like Gecko) Chrome/112.0.0.0 Safari/537.36" etag="ZSaIXXYRvlTkLDZNQzSX" version="21.1.7" type="device">
  <diagram name="MER" id="sFYZDMalQD7YeC36GTaa">
    <mxGraphModel dx="880" dy="452" grid="1" gridSize="10" guides="1" tooltips="1" connect="1" arrows="1" fold="1" page="1" pageScale="1" pageWidth="827" pageHeight="1169" math="0" shadow="0">
      <root>
        <mxCell id="0" />
        <mxCell id="1" parent="0" />
        <mxCell id="wSfCAWEKpjC1ESv8XnDQ-13" style="edgeStyle=orthogonalEdgeStyle;rounded=0;orthogonalLoop=1;jettySize=auto;html=1;entryX=0;entryY=0.5;entryDx=0;entryDy=0;endArrow=none;endFill=0;" edge="1" parent="1" source="wSfCAWEKpjC1ESv8XnDQ-1" target="wSfCAWEKpjC1ESv8XnDQ-5">
          <mxGeometry relative="1" as="geometry">
            <Array as="points">
              <mxPoint x="160" y="265" />
            </Array>
          </mxGeometry>
        </mxCell>
        <mxCell id="wSfCAWEKpjC1ESv8XnDQ-1" value="PESSOA" style="rounded=0;whiteSpace=wrap;html=1;" vertex="1" parent="1">
          <mxGeometry x="100" y="50" width="150" height="80" as="geometry" />
        </mxCell>
        <mxCell id="wSfCAWEKpjC1ESv8XnDQ-2" value="TELEFONE" style="rounded=0;whiteSpace=wrap;html=1;" vertex="1" parent="1">
          <mxGeometry x="560" y="45" width="140" height="80" as="geometry" />
        </mxCell>
        <mxCell id="wSfCAWEKpjC1ESv8XnDQ-3" value="EMAIL" style="rounded=0;whiteSpace=wrap;html=1;" vertex="1" parent="1">
          <mxGeometry x="560" y="230" width="140" height="70" as="geometry" />
        </mxCell>
        <mxCell id="wSfCAWEKpjC1ESv8XnDQ-4" value="POSSUI" style="rhombus;whiteSpace=wrap;html=1;" vertex="1" parent="1">
          <mxGeometry x="360" y="45" width="90" height="85" as="geometry" />
        </mxCell>
        <mxCell id="wSfCAWEKpjC1ESv8XnDQ-11" style="edgeStyle=orthogonalEdgeStyle;rounded=0;orthogonalLoop=1;jettySize=auto;html=1;endArrow=none;endFill=0;" edge="1" parent="1" source="wSfCAWEKpjC1ESv8XnDQ-5" target="wSfCAWEKpjC1ESv8XnDQ-3">
          <mxGeometry relative="1" as="geometry" />
        </mxCell>
        <mxCell id="wSfCAWEKpjC1ESv8XnDQ-5" value="POSSUI" style="rhombus;whiteSpace=wrap;html=1;" vertex="1" parent="1">
          <mxGeometry x="360" y="220" width="90" height="90" as="geometry" />
        </mxCell>
        <mxCell id="wSfCAWEKpjC1ESv8XnDQ-6" style="edgeStyle=orthogonalEdgeStyle;rounded=0;orthogonalLoop=1;jettySize=auto;html=1;exitX=0.5;exitY=1;exitDx=0;exitDy=0;" edge="1" parent="1" source="wSfCAWEKpjC1ESv8XnDQ-3" target="wSfCAWEKpjC1ESv8XnDQ-3">
          <mxGeometry relative="1" as="geometry" />
        </mxCell>
        <mxCell id="wSfCAWEKpjC1ESv8XnDQ-7" value="" style="endArrow=none;html=1;rounded=0;exitX=1;exitY=0.5;exitDx=0;exitDy=0;entryX=0;entryY=0.5;entryDx=0;entryDy=0;" edge="1" parent="1" source="wSfCAWEKpjC1ESv8XnDQ-1" target="wSfCAWEKpjC1ESv8XnDQ-4">
          <mxGeometry width="50" height="50" relative="1" as="geometry">
            <mxPoint x="280" y="100" as="sourcePoint" />
            <mxPoint x="330" y="50" as="targetPoint" />
          </mxGeometry>
        </mxCell>
        <mxCell id="wSfCAWEKpjC1ESv8XnDQ-8" value="" style="endArrow=none;html=1;rounded=0;exitX=1;exitY=0.5;exitDx=0;exitDy=0;entryX=0;entryY=0.5;entryDx=0;entryDy=0;" edge="1" parent="1">
          <mxGeometry width="50" height="50" relative="1" as="geometry">
            <mxPoint x="450" y="88.5" as="sourcePoint" />
            <mxPoint x="560" y="86.5" as="targetPoint" />
          </mxGeometry>
        </mxCell>
        <mxCell id="wSfCAWEKpjC1ESv8XnDQ-14" value="1" style="text;html=1;align=center;verticalAlign=middle;resizable=0;points=[];autosize=1;strokeColor=none;fillColor=none;" vertex="1" parent="1">
          <mxGeometry x="255" y="55" width="30" height="30" as="geometry" />
        </mxCell>
        <mxCell id="wSfCAWEKpjC1ESv8XnDQ-15" value="N" style="text;html=1;align=center;verticalAlign=middle;resizable=0;points=[];autosize=1;strokeColor=none;fillColor=none;" vertex="1" parent="1">
          <mxGeometry x="525" y="55" width="30" height="30" as="geometry" />
        </mxCell>
        <mxCell id="wSfCAWEKpjC1ESv8XnDQ-16" value="1" style="text;html=1;align=center;verticalAlign=middle;resizable=0;points=[];autosize=1;strokeColor=none;fillColor=none;" vertex="1" parent="1">
          <mxGeometry x="155" y="135" width="30" height="30" as="geometry" />
        </mxCell>
        <mxCell id="wSfCAWEKpjC1ESv8XnDQ-17" value="N" style="text;html=1;align=center;verticalAlign=middle;resizable=0;points=[];autosize=1;strokeColor=none;fillColor=none;" vertex="1" parent="1">
          <mxGeometry x="525" y="230" width="30" height="30" as="geometry" />
        </mxCell>
      </root>
    </mxGraphModel>
  </diagram>
</mxfile>
